<svg xmlns="http://www.w3.org/2000/svg" viewBox="0 0 1280 720" width="1280" height="720">
  <g id="trakt-checkbox" transform="matrix(0.8 0 0 0.8 393.6 -96.8)">
    <path d="M 244 318 L 237 326 L 280 369 L 282 369 L 288 363 L 288 361 Z M 256 306 L 249 313 L 294 357 L 300 351 L 300 349 Z M 430 279 L 323 386 L 330 394 L 430 294 Z M 424 260 L 298 386 L 317 406 L 325 398 L 313 386 L 428 271 Z M 204 259 L 195 268 L 191 274 L 186 288 L 186 430 L 188 438 L 195 451 L 203 459 L 209 463 L 218 467 L 228 468 L 229 469 L 362 469 L 372 467 L 387 459 L 397 448 L 404 430 L 404 403 L 394 403 L 394 426 L 391 437 L 386 445 L 377 453 L 365 458 L 225 458 L 216 455 L 210 451 L 203 444 L 198 435 L 196 428 L 196 292 L 198 284 L 203 275 L 210 268 L 216 264 L 225 261 L 349 261 L 349 250 L 227 250 L 215 253 Z M 421 254 L 417 248 L 414 246 L 282 378 L 280 378 L 232 330 L 225 338 L 306 418 L 313 411 L 289 386 Z" fill="#ffffff" fill-rule="evenodd"/>
  </g>
  <g id="trakt-wordmark" transform="matrix(1 0 0 1 -183.5 120)">
    <path d="M 769 283 L 761 290 L 752 305 L 749 317 L 749 334 L 782 334 L 782 326 L 784 317 L 788 310 L 792 306 L 805 301 L 824 301 L 833 304 L 841 311 L 846 323 L 847 343 L 845 345 L 824 346 L 823 347 L 815 347 L 814 348 L 807 348 L 806 349 L 790 351 L 773 356 L 760 363 L 749 375 L 744 389 L 743 405 L 745 415 L 750 426 L 758 435 L 771 443 L 785 447 L 808 447 L 819 444 L 829 438 L 835 432 L 841 423 L 846 409 L 847 410 L 847 444 L 846 445 L 847 446 L 881 446 L 882 445 L 882 328 L 881 327 L 881 318 L 879 309 L 871 292 L 861 282 L 850 276 L 828 271 L 806 271 L 805 272 L 793 273 L 780 277 Z M 847 365 L 847 398 L 844 404 L 837 411 L 831 415 L 816 420 L 800 420 L 793 417 L 785 409 L 782 399 L 783 389 L 786 383 L 791 378 L 798 374 L 810 370 L 842 364 Z M 740 272 L 738 271 L 719 271 L 709 274 L 700 280 L 695 285 L 689 294 L 685 303 L 682 315 L 680 318 L 679 317 L 679 305 L 678 304 L 677 274 L 646 274 L 646 446 L 682 446 L 682 330 L 685 324 L 693 316 L 704 310 L 711 308 L 732 308 L 740 310 Z M 1076 225 L 1049 225 L 1042 269 L 1040 274 L 985 274 L 948 326 L 929 357 L 928 356 L 928 274 L 892 274 L 892 446 L 928 446 L 928 399 L 948 374 L 950 375 L 975 420 L 991 446 L 1034 446 L 974 348 L 1013 294 L 1017 290 L 1018 291 L 1018 305 L 1047 305 L 1048 306 L 1044 309 L 1040 318 L 1040 408 L 1041 409 L 1041 418 L 1045 430 L 1055 441 L 1069 447 L 1074 448 L 1108 448 L 1109 447 L 1119 446 L 1119 416 L 1090 416 L 1085 415 L 1078 410 L 1076 405 L 1076 306 L 1077 305 L 1119 305 L 1119 274 L 1077 274 L 1076 273 Z M 559 225 L 552 272 L 550 274 L 528 274 L 528 305 L 558 305 L 559 306 L 553 311 L 551 316 L 551 414 L 552 415 L 552 420 L 559 435 L 569 443 L 576 446 L 585 448 L 627 447 L 630 446 L 630 416 L 601 416 L 593 414 L 588 409 L 587 406 L 587 401 L 586 400 L 586 307 L 588 305 L 630 305 L 630 274 L 587 274 L 586 273 L 586 225 Z" fill="#ffffff" fill-rule="evenodd"/>
  </g>
</svg>
