<?xml version="1.0" encoding="UTF-8" standalone="no"?>
<svg xmlns="http://www.w3.org/2000/svg" width="579" height="88" viewBox="0 0 579 88" role="img" aria-label="SCI-FI title">
  <path d="M 343.00 38.00 L 343.00 55.00 L 376.00 55.00 L 377.00 54.00 L 377.00 38.00 Z M 555.00 4.00 L 554.00 5.00 L 554.00 80.00 L 555.00 81.00 L 571.00 81.00 L 571.00 4.00 Z M 494.00 4.00 L 438.00 4.00 L 437.00 5.00 L 437.00 81.00 L 453.00 81.00 L 454.00 80.00 L 454.00 52.00 L 455.00 51.00 L 490.00 51.00 L 490.00 36.00 L 455.00 36.00 L 454.00 35.00 L 454.00 20.00 L 455.00 19.00 L 495.00 19.00 L 495.00 5.00 Z M 264.00 4.00 L 263.00 5.00 L 263.00 80.00 L 264.00 81.00 L 280.00 81.00 L 280.00 4.00 Z M 158.00 4.00 L 157.00 5.00 L 152.00 6.00 L 148.00 9.00 L 145.00 10.00 L 136.00 19.00 L 132.00 27.00 L 131.00 33.00 L 130.00 34.00 L 130.00 38.00 L 129.00 39.00 L 129.00 46.00 L 130.00 47.00 L 131.00 56.00 L 135.00 65.00 L 143.00 74.00 L 151.00 79.00 L 153.00 79.00 L 156.00 81.00 L 159.00 81.00 L 160.00 82.00 L 178.00 82.00 L 179.00 81.00 L 182.00 81.00 L 193.00 76.00 L 200.00 69.00 L 200.00 68.00 L 191.00 59.00 L 188.00 59.00 L 182.00 64.00 L 175.00 67.00 L 164.00 67.00 L 159.00 65.00 L 152.00 59.00 L 149.00 54.00 L 149.00 52.00 L 147.00 48.00 L 147.00 38.00 L 148.00 37.00 L 148.00 34.00 L 151.00 28.00 L 160.00 20.00 L 162.00 20.00 L 163.00 19.00 L 175.00 19.00 L 183.00 22.00 L 188.00 26.00 L 190.00 26.00 L 196.00 20.00 L 199.00 16.00 L 199.00 14.00 L 190.00 7.00 L 188.00 7.00 L 182.00 4.00 L 177.00 4.00 L 176.00 3.00 L 164.00 3.00 L 163.00 4.00 Z M 29.00 4.00 L 20.00 8.00 L 13.00 16.00 L 13.00 18.00 L 11.00 22.00 L 11.00 33.00 L 12.00 34.00 L 12.00 36.00 L 19.00 44.00 L 25.00 47.00 L 35.00 49.00 L 36.00 50.00 L 40.00 50.00 L 41.00 51.00 L 49.00 53.00 L 52.00 56.00 L 53.00 61.00 L 52.00 63.00 L 47.00 67.00 L 45.00 67.00 L 44.00 68.00 L 38.00 68.00 L 37.00 67.00 L 34.00 67.00 L 33.00 66.00 L 28.00 65.00 L 23.00 62.00 L 19.00 58.00 L 17.00 58.00 L 17.00 59.00 L 9.00 68.00 L 9.00 71.00 L 14.00 75.00 L 24.00 80.00 L 27.00 80.00 L 32.00 82.00 L 48.00 82.00 L 49.00 81.00 L 52.00 81.00 L 62.00 76.00 L 66.00 71.00 L 69.00 65.00 L 69.00 52.00 L 68.00 51.00 L 68.00 49.00 L 62.00 42.00 L 57.00 39.00 L 55.00 39.00 L 52.00 37.00 L 49.00 37.00 L 45.00 35.00 L 42.00 35.00 L 41.00 34.00 L 38.00 34.00 L 37.00 33.00 L 32.00 32.00 L 28.00 28.00 L 28.00 24.00 L 32.00 19.00 L 34.00 19.00 L 35.00 18.00 L 42.00 18.00 L 43.00 19.00 L 49.00 20.00 L 55.00 23.00 L 57.00 25.00 L 59.00 25.00 L 66.00 16.00 L 67.00 13.00 L 62.00 9.00 L 50.00 4.00 L 45.00 4.00 L 44.00 3.00 L 34.00 3.00 L 33.00 4.00 Z" fill="#ffffff" fill-rule="evenodd"/>
</svg>
